<svg id="Capa_1" enable-background="new 0 0 510 510" height="512" viewBox="0 0 510 510" width="512" xmlns="http://www.w3.org/2000/svg" xmlns:xlink="http://www.w3.org/1999/xlink"><linearGradient id="lg1"><stop offset="0" stop-color="#f3eae6"/><stop offset="1" stop-color="#cdbfba"/></linearGradient><linearGradient id="SVGID_1_" gradientUnits="userSpaceOnUse" x1="119.491" x2="216.936" xlink:href="#lg1" y1="124" y2="124"/><linearGradient id="lg2"><stop offset="0" stop-color="#01d0fb"/><stop offset=".6075" stop-color="#26a6fe"/><stop offset="1" stop-color="#0182fc"/></linearGradient><linearGradient id="SVGID_2_" gradientUnits="userSpaceOnUse" x1="92.644" x2="398.996" xlink:href="#lg2" y1="252.626" y2="252.626"/><linearGradient id="lg3"><stop offset="0" stop-color="#01bffa"/><stop offset="1" stop-color="#5b5cff"/></linearGradient><linearGradient id="SVGID_3_" gradientUnits="userSpaceOnUse" x1="97.115" x2="314.17" xlink:href="#lg3" y1="254.503" y2="254.503"/><linearGradient id="SVGID_4_" gradientUnits="userSpaceOnUse" x1="217.658" x2="377.396" xlink:href="#lg3" y1="254.474" y2="254.474"/><linearGradient id="lg4"><stop offset="0" stop-color="#faf7f7"/><stop offset=".4551" stop-color="#f3eae6"/><stop offset="1" stop-color="#efe2dd"/></linearGradient><linearGradient id="SVGID_5_" gradientUnits="userSpaceOnUse" x1="104.194" x2="359.65" xlink:href="#lg4" y1="375" y2="375"/><linearGradient id="SVGID_6_" gradientUnits="userSpaceOnUse" x1="104.194" x2="359.65" xlink:href="#lg4" y1="272.156" y2="272.156"/><linearGradient id="SVGID_7_" gradientUnits="userSpaceOnUse" x1="142.581" x2="349.977" xlink:href="#lg4" y1="169.312" y2="169.312"/><linearGradient id="SVGID_8_" gradientUnits="userSpaceOnUse" x1="90.707" x2="395.846" xlink:href="#lg4" y1="251.75" y2="251.75"/><linearGradient id="SVGID_9_" gradientUnits="userSpaceOnUse" x1="226.158" x2="320.205" xlink:href="#lg1" y1="63.084" y2="63.084"/><linearGradient id="SVGID_10_" gradientUnits="userSpaceOnUse" x1="298.158" x2="395.603" xlink:href="#lg4" y1="124" y2="124"/><linearGradient id="SVGID_11_" gradientUnits="userSpaceOnUse" x1="317.176" x2="433.606" xlink:href="#lg1" y1="124" y2="124"/><linearGradient id="SVGID_12_" gradientTransform="matrix(0 1 -1 0 2363.504 3078.495)" gradientUnits="userSpaceOnUse" x1="-3117.945" x2="-2480.593" xlink:href="#lg4" y1="2061.64" y2="2061.64"/><linearGradient id="SVGID_13_" gradientUnits="userSpaceOnUse" x1="138.158" x2="380.338" xlink:href="#lg4" y1="449.61" y2="449.61"/><linearGradient id="SVGID_14_" gradientUnits="userSpaceOnUse" x1="269.491" x2="385.921" xlink:href="#lg1" y1="449.61" y2="449.61"/><linearGradient id="SVGID_15_" gradientUnits="userSpaceOnUse" x1="-2.951" x2="794.46" xlink:href="#lg2" y1="474.56" y2="474.56"/><linearGradient id="SVGID_16_" gradientUnits="userSpaceOnUse" x1="148" x2="527.033" xlink:href="#lg2" y1="474.56" y2="474.56"/><g><g><g><path d="m243.906 124c0-11.051-8.959-20.01-20.01-20.01h-92.72c-11.051 0-20.01 8.959-20.01 20.01 0 11.051 8.959 20.01 20.01 20.01h92.72c11.051 0 20.01-8.959 20.01-20.01z" fill="url(#SVGID_1_)"/></g><path d="m356.202 469.62h-241.366l-8.273-146.999c-7.123-126.576 70.787-242.45 190.693-283.616l3.065-1.052c27.383-9.401 54.07 10.946 54.07 39.897z" fill="url(#SVGID_2_)"/><path d="m264.114 52.781v129.269h-129.066c-4 8.14-7.61 16.49-10.82 25.01h117.011c12.634 0 22.876 10.242 22.876 22.876v54.964h-157.157c-.65 8.26-.92 16.61-.82 25.01h135.101c12.634 0 22.876 10.242 22.876 22.876v54.954h-153.887l1.41 25.01h129.601c12.634 0 22.876 10.242 22.876 22.876v33.994h32.071v-430.235c-11.062 3.847-21.765 8.327-32.072 13.396z" fill="url(#SVGID_3_)"/><path d="m331.191 39.328v104.74h-23.917c-4 8.14-7.61 16.49-10.82 25.01h19.614c8.352 0 15.123 6.771 15.123 15.123v285.419h25.011v-391.77c-.948-19.778-10.569-32.046-25.011-38.522z" fill="url(#SVGID_4_)"/><path d="m308.234 374.999c0-7.035-5.704-12.739-12.739-12.739h-162.75c-7.036 0-12.739 5.704-12.739 12.739s5.704 12.739 12.739 12.739h162.75c7.036.001 12.739-5.703 12.739-12.739z" fill="url(#SVGID_5_)"/><path d="m308.234 272.156c0-7.035-5.704-12.739-12.739-12.739h-162.75c-7.036 0-12.739 5.704-12.739 12.739s5.704 12.739 12.739 12.739h162.75c7.036 0 12.739-5.704 12.739-12.739z" fill="url(#SVGID_6_)"/><path d="m308.234 169.312c0-7.035-5.704-12.739-12.739-12.739h-127.337c-7.036 0-12.739 5.704-12.739 12.739s5.704 12.739 12.739 12.739h127.337c7.036 0 12.739-5.704 12.739-12.739z" fill="url(#SVGID_7_)"/><path d="m129.821 345.878c-7.123-126.576 70.786-242.451 190.693-283.616l3.065-1.052c10.211-3.505 20.658-2.572 29.643 1.099-5.911-19.792-30.875-33.918-52.9-26.356l-3.065 1.052c-119.907 41.166-199.817 159.04-192.694 285.616l8.273 146.999h23.948z" fill="url(#SVGID_8_)"/><path d="m264.114 88.878c10.316-6.343 21.11-12.061 32.34-17.099v-34.489c-11.14 3.862-21.933 8.385-32.34 13.517z" fill="url(#SVGID_9_)"/><g><path d="m422.573 124c0-11.051-8.959-20.01-20.01-20.01h-92.72c-11.051 0-20.01 8.959-20.01 20.01 0 11.051 8.959 20.01 20.01 20.01h92.72c11.051 0 20.01-8.959 20.01-20.01z" fill="url(#SVGID_10_)"/><path d="m402.563 103.99h-40.02c11.051 0 20.01 8.959 20.01 20.01s-8.959 20.01-20.01 20.01h40.02c11.051 0 20.01-8.959 20.01-20.01s-8.959-20.01-20.01-20.01z" fill="url(#SVGID_11_)"/></g><path d="m289.125 469.62h25.478v-456.459c0-7.014-5.487-13.031-12.5-13.159-7.145-.131-12.978 5.622-12.978 12.737z" fill="url(#SVGID_12_)"/><g><path d="m374.888 449.61c0-11.051-8.959-20.01-20.01-20.01h-247.44c-11.051 0-20.01 8.959-20.01 20.01 0 11.051 8.959 20.01 20.01 20.01h247.44c11.051 0 20.01-8.959 20.01-20.01z" fill="url(#SVGID_13_)"/><path d="m354.878 429.6h-40.02c11.051 0 20.01 8.959 20.01 20.01s-8.959 20.01-20.01 20.01h40.02c11.051 0 20.01-8.959 20.01-20.01s-8.959-20.01-20.01-20.01z" fill="url(#SVGID_14_)"/></g></g><g><path d="m510 482.891v14.867c0 6.761-5.481 12.242-12.242 12.242h-485.516c-6.761 0-12.242-5.481-12.242-12.242v-14.871c0-10.783 8.769-19.586 19.551-19.452 10.803.134 21.647-3.919 29.889-12.154 8.1-8.11 18.73-12.16 29.36-12.16s21.26 4.05 29.37 12.16c8.11 8.1 18.74 12.16 29.37 12.16 10.62 0 21.25-4.06 29.36-12.16 8.11-8.11 18.74-12.16 29.37-12.16s21.25 4.05 29.36 12.16c8.11 8.1 18.74 12.16 29.37 12.16s21.26-4.06 29.37-12.16c8.11-8.11 18.73-12.16 29.36-12.16s21.26 4.05 29.37 12.16c8.11 8.1 18.74 12.16 29.36 12.16 10.63 0 21.26-4.06 29.37-12.16 8.11-8.11 18.74-12.16 29.37-12.16s21.26 4.05 29.36 12.16c8.11 8.1 18.74 12.16 29.37 12.16.069 0 .138 0 .208-.001 10.904-.055 19.862 8.546 19.862 19.451z" fill="url(#SVGID_15_)"/><path d="m490.137 463.439c-.069 0-.138 0-.208 0-10.63 0-21.26-4.06-29.37-12.16-8.1-8.11-18.73-12.16-29.36-12.16-6.902 0-13.799 1.719-20.011 5.136 3.354 1.846 6.511 4.18 9.351 7.024 8.11 8.1 18.74 12.16 29.37 12.16h.208c10.905-.054 19.863 8.547 19.863 19.451v14.867c0 6.761-5.481 12.242-12.242 12.242h40.02c6.761 0 12.242-5.481 12.242-12.242v-14.867c0-10.904-8.958-19.505-19.863-19.451z" fill="url(#SVGID_16_)"/></g></g></svg>