<svg height="512pt" viewBox="-80 0 512 512" width="512pt" xmlns="http://www.w3.org/2000/svg"><path d="m343.816406 300.589844-69.738281 46.597656c-.96875-43.429688-4.238281-84.566406-6.621094-109.726562l23.632813-15.792969c3.894531-2.597657 8.664062-3.546875 13.253906-2.628907 4.59375.914063 8.632812 3.617188 11.234375 7.511719l33.113281 49.550781c5.414063 8.105469 3.234375 19.070313-4.875 24.488282zm0 0" fill="#65ddb9"/><path d="m274.097656 347.1875c-.972656-43.429688-4.238281-84.566406-6.621094-109.726562-.265624-2.734376-.53125-5.382813-.796874-7.765626-1.058594-10.949218-1.851563-17.304687-1.851563-17.304687-3.160156-14.898437-13.714844-27.152344-27.984375-32.484375-5.214844-2.359375-10.617188-4.277344-16.152344-5.738281v-41.046875c11.480469-8.34375 18.089844-21.832032 17.652344-36.019532-.003906-6.277343-1.050781-12.511718-3.089844-18.449218l13.984375-23.257813c.980469-1.628906.8125-3.699219-.417969-5.144531-1.234374-1.445312-3.25-1.941406-5.011718-1.230469l-21.089844 8.449219c-4.234375-4.609375-9.414062-8.25-15.183594-10.683594l-9.082031-31.882812c-.539063-1.898438-2.273437-3.210938-4.246094-3.210938-1.972656 0-3.707031 1.3125-4.246093 3.210938l-9.082032 31.882812c-5.753906 2.410156-10.910156 6.058594-15.097656 10.683594l-21.183594-8.46875c-1.761718-.703125-3.773437-.203125-5 1.242188-1.230468 1.441406-1.398437 3.507812-.421875 5.132812l13.984375 23.277344c-2.039062 5.9375-3.085937 12.171875-3.089844 18.449218-.441406 14.1875 6.171876 27.675782 17.652344 36.019532v17.125c-.019531 9.507812-7.550781 17.304687-17.054687 17.65625-4.800781.175781-8.183594.351562-9.425781.351562-9.300782-.101562-18.40625-2.660156-26.394532-7.414062-28.515625-16.597656-44.226562-54.910156-44.226562-54.910156h-35.3125s32.488281 43.519531 26.484375 79.449218c-4.46875 23.027344 1.050781 46.867188 15.183593 65.589844 8.03125 11.121094 16.859376 18.359375 20.125 22.6875 3.734376 5.097656 6.324219 10.9375 7.59375 17.125-14.476562 8.738281-25.246093 17.300781-25.246093 27.011719-.152344 7.070312 2.589843 13.894531 7.589843 18.890625 5 5 11.824219 7.742187 18.890626 7.59375.273437-1.027344.628906-2.03125 1.0625-3.003906-1.0625 23.570312-3.355469 51.113281-2.5625 81.566406.359374 18.046875 2.011718 36.042968 4.945312 53.851562h155.71875c6.417969-31.097656 9.496094-62.792968 9.179688-94.546875.175781-11.652343.089843-23.390625-.175782-34.957031zm0 0" fill="#65ddb9"/><path d="m26.484375 35.308594s5.144531-26.480469 26.480469-35.308594c0 0 26.484375 17.65625 26.484375 35.308594zm0 0" fill="#f29c1f"/><path d="m35.308594 35.308594h35.3125v35.3125h-35.3125zm0 0" fill="#65ddb9"/><path d="m236.84375 179.90625c-19.683594 13.328125-48.992188 35.839844-60.292969 58.4375-11.121093 22.335938-46.960937 37.605469-71.855469 52.4375-1.269531-6.1875-3.859374-12.027344-7.59375-17.125-3.265624-4.328125-12.09375-11.566406-20.125-22.6875 29.925782-24.628906 36.632813-65.855469 37.871094-90.128906 7.988282 4.753906 17.09375 7.3125 26.394532 7.414062 1.234374 0 4.589843-.175781 9.355468-.351562 9.542969-.289063 17.128906-8.109375 17.125-17.65625v-17.125c15.996094 10.828125 36.972656 10.828125 52.96875 0v41.046875c5.535156 1.460937 10.9375 3.378906 16.152344 5.738281zm0 0" fill="#46b29d"/><path d="m266.679688 229.695312c-21.359376 36.632813-60.203126 79.269532-98.957032 79.269532-43.078125 0-56.9375 23.304687-60.644531 32.042968 0 .089844-.085937.179688-.085937.265626-.433594.972656-.789063 1.976562-1.0625 3.003906-7.066407.148437-13.890626-2.59375-18.890626-7.59375-5-4.996094-7.742187-11.820313-7.589843-18.890625 0-9.710938 10.769531-18.273438 25.246093-27.011719 24.894532-14.832031 60.734376-30.101562 71.855469-52.4375 11.300781-22.597656 40.609375-45.109375 60.292969-58.4375 14.269531 5.332031 24.824219 17.585938 27.984375 32.484375 0 0 .792969 6.355469 1.851563 17.304687zm0 0" fill="#65ddb9"/><path d="m274.273438 382.144531c-17.921876-11.121093-35.929688-27.628906-35.929688-46.695312 0-35.3125-44.136719 8.828125-44.136719 35.308593 0 23.746094-63.824219 47.492188-89.777343 52.082032-.792969-30.453125 1.5-57.996094 2.5625-81.566406 0-.085938.085937-.175782.085937-.265626 3.707031-8.738281 17.566406-32.042968 60.644531-32.042968 38.753906 0 77.597656-42.636719 98.957032-79.269532.265624 2.382813.53125 5.03125.796874 7.765626 2.382813 25.160156 5.648438 66.296874 6.621094 109.726562.265625 11.566406.351563 23.304688.175782 34.957031zm0 0" fill="#46b29d"/><path d="m274.273438 382.144531c.316406 31.753907-2.761719 63.449219-9.179688 94.546875h-155.71875c-2.933594-17.808594-4.585938-35.804687-4.945312-53.851562 25.953124-4.589844 89.777343-28.335938 89.777343-52.082032 0-26.480468 44.136719-70.621093 44.136719-35.308593 0 19.066406 18.007812 35.574219 35.929688 46.695312zm0 0" fill="#65ddb9"/><path d="m114.847656 160.839844c-1.238281 24.273437-7.945312 65.5-37.871094 90.128906-14.132812-18.722656-19.652343-42.5625-15.183593-65.589844 6.003906-35.929687-26.484375-79.449218-26.484375-79.449218h35.3125s15.710937 38.3125 44.226562 54.910156zm0 0" fill="#65ddb9"/><path d="m235.253906 78.652344c2.039063 5.9375 3.085938 12.171875 3.089844 18.449218 0 0-8.828125-17.652343-44.136719-17.652343-35.308593 0-44.136719 17.652343-44.136719 17.652343.003907-6.277343 1.050782-12.511718 3.089844-18.449218l-13.992187-23.277344c-.976563-1.625-.808594-3.691406.417969-5.132812 1.230468-1.445313 3.242187-1.945313 5-1.242188l21.1875 8.46875c4.191406-4.625 9.347656-8.273438 15.105468-10.683594l9.082032-31.882812c.539062-1.898438 2.273437-3.210938 4.246093-3.210938 1.972657 0 3.707031 1.3125 4.246094 3.210938l9.082031 31.882812c5.769532 2.433594 10.949219 6.074219 15.183594 10.683594l21.089844-8.449219c1.761718-.710937 3.777344-.214843 5.011718 1.230469 1.230469 1.445312 1.398438 3.515625.417969 5.144531zm0 0" fill="#46b29d"/><path d="m238.34375 97.101562c.4375 14.1875-6.171875 27.675782-17.652344 36.019532-15.996094 10.828125-36.972656 10.828125-52.96875 0-11.480468-8.34375-18.09375-21.832032-17.652344-36.019532 0 0 8.828126-17.652343 44.136719-17.652343 35.308594 0 44.136719 17.652343 44.136719 17.652343zm0 0" fill="#65ddb9"/><path d="m300.136719 503.171875c0 4.875-3.949219 8.828125-8.828125 8.828125h-211.859375c-4.875 0-8.828125-3.953125-8.828125-8.828125 0-14.625 11.855468-26.480469 26.480468-26.480469h176.554688c14.625 0 26.480469 11.855469 26.480469 26.480469zm0 0" fill="#cbb292"/><g fill="#46b29d"><path d="m35.308594 70.621094h35.3125c9.75 0 17.65625 7.902344 17.65625 17.65625 0 9.75-7.90625 17.652344-17.65625 17.652344h-35.3125c-9.75 0-17.652344-7.902344-17.652344-17.652344 0-9.753906 7.902344-17.65625 17.652344-17.65625zm0 0"/><path d="m97.101562 44.136719h-88.273437c-4.875 0-8.828125-3.949219-8.828125-8.828125 0-4.875 3.953125-8.824219 8.828125-8.824219h88.273437c4.878907 0 8.828126 3.949219 8.828126 8.824219 0 4.878906-3.949219 8.828125-8.828126 8.828125zm0 0"/></g></svg>